<!-- Generated by IcoMoon.io -->
<svg version="1.1" xmlns="http://www.w3.org/2000/svg" width="838" height="1024" viewBox="0 0 838 1024">
<g id="icomoon-ignore">
</g>
<path fill="#4a86e8" d="M411.571 1024c9.080 0 21.311-3.948 33.542-10.259 286.877-155.476 378.033-225.713 378.033-402.104v-383.95c0-53.272-20.915-70.634-65.901-89.181-67.477-26.833-237.552-89.97-305.028-112.857-13.415-4.341-26.835-7.497-40.646-7.497-13.809 0-27.226 3.551-40.642 7.497-67.477 22.887-237.552 86.419-305.030 112.857-44.985 17.758-65.899 35.909-65.899 89.181v383.95c0 176.391 95.889 238.736 378.032 402.104 11.838 6.708 24.466 10.259 33.539 10.259z"></path>
<path fill="#fff" opacity="0.85" d="M123.148 565.874c0-7.854 3.664-16.756 10.994-25.658l385.39-484.356c27.224-32.987 71.217-10.468 55.508 30.372l-128.287 344.025h238.774c16.756 0 29.325 11.521 29.325 27.751 0 7.854-3.662 16.756-10.995 25.658l-385.914 484.353c-26.708 32.986-70.689 10.995-54.982-30.372l128.286-344.025h-239.3c-16.232 0-28.798-11.521-28.798-27.751z"></path>
</svg>
