<!-- Generated by IcoMoon.io -->
<svg version="1.1" xmlns="http://www.w3.org/2000/svg" width="100%" height="100%" viewBox="0 0 60 80">
<title>pin</title>
<g id="icomoon-ignore">
</g>
<path d="M30 0c-16.543 0-30 13.485-30 30.055 0 24.817 28.003 48.648 29.195 49.65 0.233 0.198 0.52 0.295 0.805 0.295 0.282 0 0.565-0.095 0.795-0.285 1.193-0.985 29.205-24.405 29.205-49.66 0-16.57-13.457-30.055-30-30.055zM30.005 77.095c-4.602-4.112-27.505-25.647-27.505-47.040 0-15.195 12.337-27.555 27.5-27.555s27.5 12.36 27.5 27.555c0 21.755-22.88 42.983-27.495 47.040zM30 15c-8.273 0-15 6.727-15 15s6.727 15 15 15 15-6.727 15-15-6.727-15-15-15zM30 42.5c-6.892 0-12.5-5.608-12.5-12.5s5.608-12.5 12.5-12.5 12.5 5.608 12.5 12.5-5.608 12.5-12.5 12.5z" fill="#4a86e8"></path>
</svg>
