<!-- Generated by IcoMoon.io -->
<svg version="1.1" xmlns="http://www.w3.org/2000/svg" width="1024" height="1024" viewBox="0 0 1024 1024">
<title></title>
<g id="icomoon-ignore">
</g>
<path fill="#4a86e8" d="M512 0c-211.75 0-384 172.608-384 384.704 0 317.658 358.438 622.694 373.696 635.52 2.982 2.534 6.656 3.776 10.304 3.776 3.61 0 7.232-1.216 10.176-3.648 15.27-12.608 373.824-312.384 373.824-635.648 0-212.096-172.25-384.704-384-384.704zM512.064 986.816c-58.906-52.634-352.064-328.282-352.064-602.112 0-194.496 157.914-352.704 352-352.704s352 158.208 352 352.704c0 278.464-292.864 550.182-351.936 602.112zM512 192c-105.894 0-192 86.106-192 192s86.106 192 192 192 192-86.106 192-192-86.106-192-192-192zM512 544c-88.218 0-160-71.782-160-160s71.782-160 160-160 160 71.782 160 160-71.782 160-160 160z"></path>
</svg>
